<svg width="20" height="20" viewBox="0 0 20 20" fill="none" xmlns="http://www.w3.org/2000/svg">
<path d="M8 7C8 7.55228 7.55228 8 7 8C6.44772 8 6 7.55228 6 7C6 6.44772 6.44772 6 7 6C7.55228 6 8 6.44772 8 7ZM13 8C13.5523 8 14 7.55228 14 7C14 6.44772 13.5523 6 13 6C12.4477 6 12 6.44772 12 7C12 7.55228 12.4477 8 13 8ZM0 4C0 1.79086 1.79086 0 4 0H16C18.2092 0 20 1.79086 20 4V13C20 13.2652 19.8946 13.5196 19.7072 13.7071L13.7071 19.7072C13.5196 19.8946 13.2652 20 13 20H4C1.79086 20 0 18.2092 0 16V4ZM4 2C2.89544 2 2 2.89544 2 4V16C2 17.1046 2.89544 18 4 18H10V14.0206H9.99174C8.63594 14.0206 7.64848 13.3354 7.0413 12.727C6.73482 12.4198 6.5071 12.1154 6.35526 11.8874C6.27878 11.7725 6.22 11.6747 6.17872 11.6025C6.15804 11.5663 6.14166 11.5363 6.12954 11.5136L6.1145 11.4849L6.10936 11.4749L6.10738 11.471L6.1058 11.4678C5.8588 10.9738 6.05902 10.3732 6.553 10.1262C7.04676 9.8793 7.6471 10.0792 7.8943 10.5727C7.8978 10.5792 7.90488 10.5921 7.91544 10.6106C7.93662 10.6477 7.97152 10.7062 8.0199 10.7788C8.1178 10.9258 8.26456 11.1214 8.45702 11.3142C8.84772 11.7058 9.35602 12.0206 9.99174 12.0206C10.2036 12.0206 10.3987 11.9855 10.5797 11.9249C11.2814 10.7708 12.5507 10 14 10H18V4C18 2.89544 17.1046 2 16 2H4ZM18 12H14C12.8954 12 12 12.8954 12 14V18H12.5858L18 12.5858V12Z" fill="#6FCF97"/>
</svg>
