<svg width="18" height="22" viewBox="0 0 18 22" fill="none" xmlns="http://www.w3.org/2000/svg">
<path d="M17.0297 5.76641C17.1703 5.90703 17.25 6.09687 17.25 6.29609V20.75C17.25 21.1648 16.9148 21.5 16.5 21.5H1.5C1.08516 21.5 0.75 21.1648 0.75 20.75V1.25C0.75 0.835156 1.08516 0.5 1.5 0.5H11.4539C11.6531 0.5 11.8453 0.579688 11.9859 0.720313L17.0297 5.76641ZM15.5203 6.64062L11.1094 2.22969V6.64062H15.5203ZM4.5 10.2969C4.45027 10.2969 4.40258 10.3166 4.36742 10.3518C4.33225 10.387 4.3125 10.4346 4.3125 10.4844V11.6094C4.3125 11.6591 4.33225 11.7068 4.36742 11.742C4.40258 11.7771 4.45027 11.7969 4.5 11.7969H13.5C13.5497 11.7969 13.5974 11.7771 13.6326 11.742C13.6677 11.7068 13.6875 11.6591 13.6875 11.6094V10.4844C13.6875 10.4346 13.6677 10.387 13.6326 10.3518C13.5974 10.3166 13.5497 10.2969 13.5 10.2969H4.5ZM4.5 13.4844C4.45027 13.4844 4.40258 13.5041 4.36742 13.5393C4.33225 13.5745 4.3125 13.6221 4.3125 13.6719V14.7969C4.3125 14.8466 4.33225 14.8943 4.36742 14.9295C4.40258 14.9646 4.45027 14.9844 4.5 14.9844H8.8125C8.86223 14.9844 8.90992 14.9646 8.94508 14.9295C8.98025 14.8943 9 14.8466 9 14.7969V13.6719C9 13.6221 8.98025 13.5745 8.94508 13.5393C8.90992 13.5041 8.86223 13.4844 8.8125 13.4844H4.5Z" fill="#111111"/>
</svg>
