<svg id="Icons" viewBox="0 0 64 64" xmlns="http://www.w3.org/2000/svg">
  <path d="M23.17,27.05A13.93,13.93,0,0,0,37.08,41h.45a3.47,3.47,0,0,0,3.3-3.48,3.71,3.71,0,0,0-.06-.67,4.6,4.6,0,0,0-.2-.66l-5.86-.93a3.51,3.51,0,0,0-.8,1.77,10.46,10.46,0,0,1-6.69-6.53A3.49,3.49,0,0,0,29,29.67L28,23.86a3.3,3.3,0,0,0-.81-.25,3.64,3.64,0,0,0-.57,0A3.48,3.48,0,0,0,23.17,27.05Z" fill="white" />
  <path d="M15.89,50A2,2,0,0,1,14,47.38l2.22-6.77a18,18,0,1,1,8.69,7.92L16.22,50A1.84,1.84,0,0,1,15.89,50Zm9.28-5.55a2,2,0,0,1,.86.2,14,14,0,1,0-5.94-5.32,2,2,0,0,1,.2,1.67l-1.47,4.48,6-1Z" fill="white" />
</svg>
